<svg xmlns="http://www.w3.org/2000/svg" width="144" height="31" viewBox="0 0 144 31" fill="none">
  <g clip-path="url(#clip0_372_1751)">
    <mask id="mask0_372_1751" style="mask-type:luminance" maskUnits="userSpaceOnUse" x="0" y="0" width="144" height="31">
      <path d="M143.839 0H0V30.3158H143.839V0Z" fill="white"/>
    </mask>
    <g mask="url(#mask0_372_1751)">
      <path d="M46.7802 7.27393C50.2818 7.27393 53.1289 9.10967 54.1907 12.2721H50.5537C49.8078 10.7898 48.4524 10.0607 46.7585 10.0607C44.0018 10.0607 42.037 12.0291 42.037 15.1694C42.037 18.3097 44.0028 20.278 46.7585 20.278C48.4534 20.278 49.8087 19.5479 50.5537 18.0445H54.1907C53.1289 21.229 50.2818 23.0426 46.7802 23.0426C42.2392 23.0426 38.7827 19.7919 38.7827 15.1703C38.7827 10.5487 42.2392 7.27484 46.7802 7.27484V7.27393Z" fill="white"/>
      <path d="M64.2215 23.0639C59.7709 23.0639 56.1328 19.791 56.1328 15.1464C56.1328 10.5017 59.77 7.25098 64.2215 7.25098C68.6731 7.25098 72.2877 10.5239 72.2877 15.1464C72.2877 19.7689 68.6957 23.0639 64.2215 23.0639ZM64.2215 20.2992C67.0686 20.2992 69.0334 18.2867 69.0334 15.1464C69.0334 12.0061 67.0676 10.0377 64.2215 10.0377C61.3754 10.0377 59.3862 12.0061 59.3862 15.1464C59.3862 18.2867 61.3519 20.2992 64.2215 20.2992Z" fill="white"/>
      <path d="M80.557 7.47266C84.3529 7.47266 86.2502 9.61775 86.2502 12.2048C86.2502 14.0847 85.1883 15.9868 82.6582 16.6496L86.4321 22.9081H82.771L79.2919 16.8927H77.8002V22.9081H74.6372V7.47266H80.557ZM80.4441 10.0375H77.8002V14.5708H80.4441C82.2067 14.5708 82.9968 13.664 82.9968 12.2711C82.9968 10.8781 82.2058 10.0375 80.4441 10.0375Z" fill="white"/>
      <path d="M98.2693 9.97232H92.2819V13.8427H97.5906V16.2971H92.2819V20.3885H98.2693V22.9092H89.1182V7.45068H98.2693V9.97139V9.97232Z" fill="white"/>
      <path d="M114.966 15.2134C114.966 19.8792 111.69 22.909 106.651 22.909H101.139V7.47266H106.651C111.69 7.47266 114.966 10.5246 114.966 15.2125V15.2134ZM106.538 20.2779C109.86 20.2779 111.735 18.42 111.735 15.2134C111.735 12.0068 109.86 10.0827 106.538 10.0827H104.302V20.2779H106.538Z" fill="white"/>
      <path d="M131.954 12.1175H128.317C127.593 10.813 126.284 10.1271 124.612 10.1271C121.788 10.1271 119.821 12.0955 119.821 15.1695C119.821 18.2435 121.81 20.256 124.748 20.256C127.187 20.256 128.747 18.8852 129.221 16.6959H123.799V14.3298H132.338V17.0283C131.705 20.1686 128.837 23.0437 124.635 23.0437C120.049 23.0437 116.568 19.7929 116.568 15.1713C116.568 10.5497 120.047 7.27588 124.612 7.27588C128.136 7.27588 130.938 9.02329 131.954 12.1194V12.1175Z" fill="white"/>
      <path d="M143.838 9.97232H137.851V13.8427H143.16V16.2971H137.851V20.3885H143.838V22.9092H134.688V7.45068H143.838V9.97139V9.97232Z" fill="white"/>
      <path d="M18.4394 13.4073C17.8553 12.5759 16.8734 12.0309 15.7588 12.0309C13.9681 12.0309 12.5168 13.4395 12.5168 15.1777C12.5168 16.9159 13.9681 18.3245 15.7588 18.3245C17.3625 18.3245 18.6915 17.193 18.952 15.708L30.9779 15.7034V15.1575C30.9769 6.79986 24.0291 0 15.4889 0C6.94876 0 0 6.79986 0 15.1583C0 23.5169 6.94782 30.3121 15.4889 30.3167C24.9245 30.3223 28.9933 22.5916 28.9933 22.5916L23.1647 19.9457L22.6785 20.7715C20.914 23.4653 19.0884 24.3749 15.4504 24.3749C10.2623 24.3749 6.04113 20.2403 6.04113 15.1592C6.04113 10.0782 10.2623 5.94366 15.4504 5.94366C17.9625 5.94366 20.3252 6.90205 22.1019 8.6411L18.4394 13.4091V13.4073Z" fill="url(#paint0_linear_372_1751)"/>
    </g>
  </g>
  <defs>
    <linearGradient id="paint0_linear_372_1751" x1="15.4889" y1="0" x2="15.4889" y2="30.3167" gradientUnits="userSpaceOnUse">
      <stop offset="0.4375" stop-color="#BEDD00"/>
      <stop offset="1" stop-color="#0095B6"/>
    </linearGradient>
    <clipPath id="clip0_372_1751">
      <rect width="144" height="30.3158" fill="white"/>
    </clipPath>
  </defs>
</svg>